<svg width="85" height="85" viewBox="0 0 85 85" fill="none" xmlns="http://www.w3.org/2000/svg">
<rect x="0.5" y="0.5" width="84" height="84" rx="3.5" stroke="#929292"/>
<path d="M52 24.1666H56.5C57.6935 24.1666 58.8381 24.6495 59.682 25.5091C60.5259 26.3686 61 27.5344 61 28.75V60.8333C61 62.0489 60.5259 63.2147 59.682 64.0742C58.8381 64.9337 57.6935 65.4166 56.5 65.4166H29.5C28.3065 65.4166 27.1619 64.9337 26.318 64.0742C25.4741 63.2147 25 62.0489 25 60.8333V28.75C25 27.5344 25.4741 26.3686 26.318 25.5091C27.1619 24.6495 28.3065 24.1666 29.5 24.1666H34" stroke="#363636" stroke-width="3" stroke-linecap="round" stroke-linejoin="round"/>
<path d="M49.75 19.5834H36.25C35.0074 19.5834 34 20.6094 34 21.875V26.4584C34 27.724 35.0074 28.75 36.25 28.75H49.75C50.9926 28.75 52 27.724 52 26.4584V21.875C52 20.6094 50.9926 19.5834 49.75 19.5834Z" stroke="#363636" stroke-width="3" stroke-linecap="round" stroke-linejoin="round"/>
<rect x="33" y="38" width="20" height="3" fill="#6C0BF4"/>
<rect x="33" y="45" width="20" height="3" fill="#6C0BF4"/>
<rect x="33" y="52" width="20" height="3" fill="#6C0BF4"/>
</svg>
