<svg width="85" height="85" viewBox="0 0 85 85" fill="none" xmlns="http://www.w3.org/2000/svg">
<rect x="0.5" y="0.5" width="84" height="84" rx="3.5" stroke="#929292"/>
<path d="M43 48.875C46.4518 48.875 49.25 46.0208 49.25 42.5C49.25 38.9792 46.4518 36.125 43 36.125C39.5482 36.125 36.75 38.9792 36.75 42.5C36.75 46.0208 39.5482 48.875 43 48.875Z" stroke="#6C0BF4" stroke-width="3" stroke-linecap="round" stroke-linejoin="round"/>
<path d="M58.4166 48.875C58.1393 49.5159 58.0566 50.2269 58.1791 50.9163C58.3017 51.6056 58.6239 52.2417 59.1041 52.7425L59.2291 52.87C59.6165 53.2647 59.9239 53.7334 60.1336 54.2494C60.3432 54.7653 60.4512 55.3184 60.4512 55.8769C60.4512 56.4354 60.3432 56.9884 60.1336 57.5044C59.9239 58.0203 59.6165 58.489 59.2291 58.8837C58.8422 59.2789 58.3826 59.5924 57.8768 59.8063C57.371 60.0201 56.8288 60.1302 56.2812 60.1302C55.7337 60.1302 55.1915 60.0201 54.6856 59.8063C54.1798 59.5924 53.7203 59.2789 53.3333 58.8837L53.2083 58.7562C52.7173 58.2664 52.0937 57.9377 51.4179 57.8127C50.742 57.6878 50.045 57.7721 49.4166 58.055C48.8005 58.3244 48.2749 58.7716 47.9048 59.3418C47.5346 59.9119 47.336 60.58 47.3333 61.2637V61.625C47.3333 62.7522 46.8943 63.8332 46.1129 64.6302C45.3315 65.4272 44.2717 65.875 43.1666 65.875C42.0616 65.875 41.0018 65.4272 40.2204 64.6302C39.439 63.8332 39 62.7522 39 61.625V61.4337C38.9838 60.7304 38.7606 60.0482 38.3594 59.476C37.9581 58.9037 37.3973 58.4679 36.75 58.225C36.1216 57.9421 35.4246 57.8578 34.7488 57.9827C34.0729 58.1077 33.4493 58.4364 32.9583 58.9262L32.8333 59.0538C32.4463 59.4489 31.9868 59.7624 31.481 59.9763C30.9752 60.1901 30.433 60.3002 29.8854 60.3002C29.3378 60.3002 28.7956 60.1901 28.2898 59.9763C27.784 59.7624 27.3245 59.4489 26.9375 59.0538C26.5501 58.659 26.2427 58.1903 26.0331 57.6744C25.8234 57.1584 25.7155 56.6054 25.7155 56.0469C25.7155 55.4884 25.8234 54.9353 26.0331 54.4194C26.2427 53.9034 26.5501 53.4347 26.9375 53.04L27.0625 52.9125C27.5428 52.4117 27.8649 51.7756 27.9875 51.0863C28.11 50.3969 28.0273 49.6859 27.75 49.045C27.4859 48.4165 27.0474 47.8805 26.4884 47.5029C25.9295 47.1253 25.2745 46.9227 24.6041 46.92H24.25C23.1449 46.92 22.0851 46.4722 21.3037 45.6752C20.5223 44.8782 20.0833 43.7972 20.0833 42.67C20.0833 41.5428 20.5223 40.4618 21.3037 39.6648C22.0851 38.8678 23.1449 38.42 24.25 38.42H24.4375C25.1271 38.4035 25.7958 38.1759 26.3569 37.7666C26.9179 37.3573 27.3452 36.7853 27.5833 36.125C27.8606 35.4841 27.9434 34.7731 27.8208 34.0837C27.6983 33.3944 27.3761 32.7583 26.8958 32.2575L26.7708 32.13C26.3834 31.7353 26.0761 31.2666 25.8664 30.7506C25.6567 30.2347 25.5488 29.6816 25.5488 29.1231C25.5488 28.5646 25.6567 28.0116 25.8664 27.4956C26.0761 26.9797 26.3834 26.511 26.7708 26.1162C27.1578 25.7211 27.6173 25.4076 28.1231 25.1937C28.629 24.9799 29.1712 24.8698 29.7187 24.8698C30.2663 24.8698 30.8085 24.9799 31.3143 25.1937C31.8201 25.4076 32.2797 25.7211 32.6666 26.1162L32.7916 26.2437C33.2826 26.7336 33.9063 27.0623 34.5821 27.1873C35.2579 27.3122 35.9549 27.2279 36.5833 26.945H36.75C37.3662 26.6756 37.8917 26.2284 38.2618 25.6582C38.632 25.0881 38.8306 24.42 38.8333 23.7363V23.375C38.8333 22.2478 39.2723 21.1668 40.0537 20.3698C40.8351 19.5728 41.8949 19.125 43 19.125C44.105 19.125 45.1649 19.5728 45.9463 20.3698C46.7277 21.1668 47.1666 22.2478 47.1666 23.375V23.5662C47.1693 24.25 47.368 24.9181 47.7381 25.4882C48.1083 26.0584 48.6338 26.5056 49.25 26.775C49.8783 27.0579 50.5754 27.1422 51.2512 27.0173C51.927 26.8923 52.5506 26.5636 53.0416 26.0737L53.1666 25.9463C53.5536 25.5511 54.0132 25.2376 54.519 25.0237C55.0248 24.8099 55.567 24.6998 56.1146 24.6998C56.6621 24.6998 57.2043 24.8099 57.7101 25.0237C58.216 25.2376 58.6755 25.5511 59.0625 25.9463C59.4499 26.341 59.7572 26.8097 59.9669 27.3256C60.1766 27.8416 60.2845 28.3946 60.2845 28.9531C60.2845 29.5116 60.1766 30.0647 59.9669 30.5806C59.7572 31.0966 59.4499 31.5653 59.0625 31.96L58.9375 32.0875C58.4572 32.5883 58.135 33.2244 58.0125 33.9137C57.8899 34.6031 57.9727 35.3141 58.25 35.955V36.125C58.5141 36.7535 58.9526 37.2895 59.5115 37.6671C60.0704 38.0447 60.7254 38.2473 61.3958 38.25H61.75C62.855 38.25 63.9149 38.6978 64.6963 39.4948C65.4777 40.2918 65.9166 41.3728 65.9166 42.5C65.9166 43.6272 65.4777 44.7082 64.6963 45.5052C63.9149 46.3022 62.855 46.75 61.75 46.75H61.5625C60.8921 46.7527 60.2371 46.9553 59.6782 47.3329C59.1192 47.7105 58.6807 48.2465 58.4166 48.875V48.875Z" stroke="#363636" stroke-width="3" stroke-linecap="round" stroke-linejoin="round"/>
</svg>
