<svg width="85" height="85" viewBox="0 0 85 85" fill="none" xmlns="http://www.w3.org/2000/svg">
<rect x="0.5" y="0.5" width="84" height="84" rx="3.5" stroke="#929292"/>
<path d="M51.305 27.5628H19.7998C18.6952 27.5628 17.7998 28.4582 17.7998 29.5628V62.4C17.7998 63.5046 18.6952 64.4 19.7998 64.4H61.6603C65.051 64.4 67.7998 61.6513 67.7998 58.2605V58.2605M67.7998 58.2605V28.4C67.7998 23.9817 64.2181 20.4 59.7998 20.4H59.4905C58.386 20.4 57.4905 21.2955 57.4905 22.4V49.5076C57.4905 50.6511 58.45 51.5558 59.589 51.6568C63.1515 51.9728 67.7998 53.548 67.7998 58.2605Z" stroke="#363636" stroke-width="3"/>
<path d="M27.0371 56.8735V37.946C27.0371 36.8415 27.9325 35.946 29.0371 35.946H39.794M35.0692 51.3925V54.3787C35.0692 54.9309 35.517 55.3787 36.0692 55.3787H50.1335C50.6858 55.3787 51.1335 54.9309 51.1335 54.3787V37.946C51.1335 36.8415 50.2381 35.946 49.1335 35.946H39.794M33.5632 45.1018H38.794C39.3463 45.1018 39.794 44.6541 39.794 44.1018V35.946" stroke="#6C0BF4" stroke-width="3"/>
</svg>
