<?xml version="1.0" encoding="UTF-8"?>
<svg xmlns="http://www.w3.org/2000/svg" xmlns:xlink="http://www.w3.org/1999/xlink" width="px" height="px" viewBox="0 0 15 17" version="1.1">
<defs>
<clipPath id="clip1">
  <path d="M 0 0.292969 L 15 0.292969 L 15 14 L 0 14 Z M 0 0.292969 "/>
</clipPath>
</defs>
<g id="surface1">
<g clip-path="url(#clip1)" clip-rule="nonzero">
<path style="fill:none;stroke-width:2;stroke-linecap:round;stroke-linejoin:round;stroke:rgb(57.254902%,57.254902%,57.254902%);stroke-opacity:1;stroke-miterlimit:4;" d="M 26.046875 3.179688 C 25.414062 2.484375 24.65625 1.9375 23.820312 1.5625 C 22.984375 1.195312 22.09375 1 21.1875 1 C 20.28125 1 19.390625 1.195312 18.554688 1.5625 C 17.71875 1.9375 16.960938 2.484375 16.328125 3.179688 L 15 4.609375 L 13.671875 3.179688 C 12.382812 1.78125 10.632812 1 8.8125 1 C 6.992188 1 5.242188 1.78125 3.953125 3.179688 C 2.664062 4.570312 1.9375 6.460938 1.9375 8.429688 C 1.9375 10.40625 2.664062 12.296875 3.953125 13.6875 L 5.273438 15.117188 L 15 25.625 L 24.726562 15.117188 L 26.046875 13.6875 C 26.6875 13 27.195312 12.179688 27.539062 11.273438 C 27.890625 10.375 28.0625 9.40625 28.0625 8.429688 C 28.0625 7.453125 27.890625 6.492188 27.539062 5.585938 C 27.195312 4.6875 26.6875 3.867188 26.046875 3.179688 Z M 26.046875 3.179688 " transform="matrix(0.5,0,0,0.5,0,0)"/>
</g>
</g>
</svg>
