<svg width="30" height="34" viewBox="0 0 30 34" fill="none" xmlns="http://www.w3.org/2000/svg">
<g clip-path="url(#clip0_15_67)">
<path d="M26.05 3.17745C25.4116 2.48717 24.6535 1.9396 23.8192 1.566C22.9849 1.19241 22.0906 1.00012 21.1875 1.00012C20.2844 1.00012 19.3902 1.19241 18.5558 1.566C17.7215 1.9396 16.9635 2.48717 16.325 3.17745L15 4.60935L13.675 3.17745C12.3854 1.78379 10.6363 1.00084 8.81253 1.00084C6.98874 1.00084 5.23964 1.78379 3.95003 3.17745C2.66041 4.57111 1.93591 6.46131 1.93591 8.43224C1.93591 10.4032 2.66041 12.2934 3.95003 13.687L5.27503 15.1189L15 25.6285L24.725 15.1189L26.05 13.687C26.6888 12.9971 27.1955 12.1779 27.5412 11.2762C27.8869 10.3746 28.0648 9.40821 28.0648 8.43224C28.0648 7.45627 27.8869 6.48986 27.5412 5.58823C27.1955 4.68659 26.6888 3.8674 26.05 3.17745Z" stroke="#929292" stroke-width="2" stroke-linecap="round" stroke-linejoin="round"/>
</g>
<defs>
<clipPath id="clip0_15_67">
<rect width="30" height="32.4203" fill="white" transform="translate(0 0.583618)"/>
</clipPath>
</defs>
</svg>
