<svg width="110" height="79" viewBox="0 0 110 79" fill="none" xmlns="http://www.w3.org/2000/svg">
<path d="M1.27922 77.8263H14.1947L46.1037 26.0611L39.6459 16.201L1.27922 77.8263Z" fill="#6C0BF4"/>
<path d="M18.3733 77.8263H30.9089L54.8406 40.8512L47.6231 28.9369L18.3733 77.8263Z" fill="#6C0BF4"/>
<path d="M33.568 1.00012L62.8179 49.0679H78.0126L48.3829 1.00012H33.568Z" fill="#6C0BF4"/>
<path d="M50.2822 1.00012L79.5321 49.0679H92.4476L63.9575 1.00012H50.2822Z" fill="#6C0BF4"/>
<path d="M1.27922 77.8263H14.1947L46.1037 26.0611L39.6459 16.201L1.27922 77.8263Z" stroke="#14002F" stroke-width="0.7"/>
<path d="M18.3733 77.8263H30.9089L54.8406 40.8512L47.6231 28.9369L18.3733 77.8263Z" stroke="#14002F" stroke-width="0.7"/>
<path d="M33.568 1.00012L62.8179 49.0679H78.0126L48.3829 1.00012H33.568Z" stroke="#14002F" stroke-width="0.7"/>
<path d="M50.2822 1.00012L79.5321 49.0679H92.4476L63.9575 1.00012H50.2822Z" stroke="#14002F" stroke-width="0.7"/>
<path d="M41.1654 78.2362L57.1199 54.4089L60.5387 60.1594L48.3829 78.2362H41.1654Z" fill="#F36F06"/>
<path d="M61.2984 61.8039L50.6621 78.2362H56.3601L64.3374 66.3231L61.2984 61.8039Z" fill="#F36F06"/>
<path d="M57.8796 53.5861L73.4542 78.2362L77.2529 73.3073L61.2984 49.068L57.8796 53.5861Z" fill="#F36F06"/>
<path d="M70.4153 60.1594L75.3535 52.3547L78.3925 57.6955L73.4542 65.0895L70.4153 60.1594Z" fill="#F36F06"/>
<path d="M74.2139 66.3231L79.1522 58.928L81.8113 63.4472L77.2529 70.8411L74.2139 66.3231Z" fill="#F36F06"/>
<path d="M76.4931 51.5319L91.6879 78.2362H99.6651L85.2301 51.5319H76.4931Z" fill="#F36F06"/>
<path d="M86.7496 51.5319L101.185 78.2362H108.782L93.5872 51.5319H86.7496Z" fill="#F36F06"/>
<path d="M41.1654 78.2362L57.1199 54.4089L60.5387 60.1594L48.3829 78.2362H41.1654Z" stroke="#865432" stroke-width="0.7"/>
<path d="M61.2984 61.8039L50.6621 78.2362H56.3601L64.3374 66.3231L61.2984 61.8039Z" stroke="#865432" stroke-width="0.7"/>
<path d="M57.8796 53.5861L73.4542 78.2362L77.2529 73.3073L61.2984 49.068L57.8796 53.5861Z" stroke="#865432" stroke-width="0.7"/>
<path d="M70.4153 60.1594L75.3535 52.3547L78.3925 57.6955L73.4542 65.0895L70.4153 60.1594Z" stroke="#865432" stroke-width="0.7"/>
<path d="M74.2139 66.3231L79.1522 58.928L81.8113 63.4472L77.2529 70.8411L74.2139 66.3231Z" stroke="#865432" stroke-width="0.7"/>
<path d="M76.4931 51.5319L91.6879 78.2362H99.6651L85.2301 51.5319H76.4931Z" stroke="#865432" stroke-width="0.7"/>
<path d="M86.7496 51.5319L101.185 78.2362H108.782L93.5872 51.5319H86.7496Z" stroke="#865432" stroke-width="0.7"/>
</svg>
